<?xml version="1.0" encoding="utf-8"?>
<!-- Generator: Adobe Illustrator 24.1.2, SVG Export Plug-In . SVG Version: 6.00 Build 0)  -->
<svg version="1.1" id="Capa_1" xmlns="http://www.w3.org/2000/svg" xmlns:xlink="http://www.w3.org/1999/xlink" x="0px" y="0px"
	 viewBox="0 0 429 95.4" style="enable-background:new 0 0 429 95.4;" xml:space="preserve">
<style type="text/css">
	.st0{fill:url(#SVGID_1_);}
	.st1{fill:url(#SVGID_2_);}
	.st2{fill:#393E46;}
</style>
<g id="SvgjsG2280" transform="matrix(23.56560431708249,0,0,23.56560431708249,-19.418057979749882,-19.394492678830606)">
	<g>
		
			<linearGradient id="SVGID_1_" gradientUnits="userSpaceOnUse" x1="-11.1291" y1="23.8377" x2="-10.1291" y2="23.8377" gradientTransform="matrix(85.8937 0 0 -73.4021 957.148 1753.0544)">
			<stop  offset="0" style="stop-color:#006838"/>
			<stop  offset="1" style="stop-color:#96CF24"/>
		</linearGradient>
		<path class="st0" d="M4.3,2.1C4,2.4,3.5,2.5,3,2.6C2.6,2.7,2.2,2.7,1.8,2.8C1.5,3,1.2,3.3,1.2,3.7c0,0.3,0.2,0.5,0.3,0.7
			c0.1,0,0.1,0.1,0.2,0.1c0,0,0,0,0,0C1.5,4.2,1.3,3.3,2.5,3.1C2.8,3,3,3,3.3,2.9c0.2,0,0.6-0.2,0.6-0.2c0,0-0.2,0.3-1,0.5
			C1.6,3.6,2,4.7,2.4,4.8c0.1,0,0.3,0.1,0.5,0.1c1.1,0,2-0.9,2-2c0-0.4-0.1-0.8-0.3-1.1C4.5,1.9,4.4,2,4.3,2.1z"/>
		
			<linearGradient id="SVGID_2_" gradientUnits="userSpaceOnUse" x1="-11.1221" y1="23.7931" x2="-10.1221" y2="23.7931" gradientTransform="matrix(81.8178 0 0 -62.6722 910.8085 1493.3164)">
			<stop  offset="0" style="stop-color:#006838"/>
			<stop  offset="1" style="stop-color:#96CF24"/>
		</linearGradient>
		<path class="st1" d="M0.8,2.8c0,0.2,0,0.4,0.1,0.6c0-0.2,0.1-0.4,0.2-0.6c0.3-0.3,0.6-0.5,1.1-0.6c0.4-0.1,0.8-0.1,1.3-0.2
			C3.7,2.1,4,2,4.1,1.8c0.2-0.1,0.2-0.3,0.1-0.5C4.1,1.3,4.1,1.2,4,1.2c0.1,0.2,0,0.6-0.9,0.7c-0.2,0-0.5,0-0.7,0.1
			C2.3,2,2.2,2,2.1,2c0,0,0.1-0.1,0.6-0.2C3.9,1.5,3.7,1,3.3,0.9C3.2,0.8,3,0.8,2.8,0.8C1.7,0.8,0.8,1.7,0.8,2.8z"/>
	</g>
</g>
<g id="SvgjsG2281" transform="matrix(2.4538965400024746,0,0,2.4538965400024746,96.54610345999752,6.233789612034428)">
	<path class="st2" d="M9.7,24.7c-0.2,0-0.3-0.1-0.3-0.3V9.9c0-0.2,0.1-0.3,0.3-0.3h5.8c1.6,0,2.7,0.3,3.6,1c1.3,0.9,1.8,2.7,1.2,4.3
		c-0.3,0.8-0.8,1.2-1.6,1.6c1,0.1,1.7,0.8,2.1,1.3c0.6,0.7,0.8,1.6,0.8,2.6c0,1.3-0.5,2.4-1.5,3.2c-1,0.7-2.3,1.1-4,1.1
		C16.1,24.7,9.7,24.7,9.7,24.7z M12.9,15.1h2.4c0.5,0,0.9-0.1,1.1-0.3c0.2-0.2,0.4-0.5,0.4-0.9c0-0.4-0.1-0.7-0.4-0.8
		c-0.2-0.2-0.6-0.3-1-0.3h-2.5V15.1z M12.9,21.7h2.8c0.7,0,1.3-0.1,1.7-0.4c0.4-0.3,0.6-0.6,0.6-1.1c0-0.5-0.2-0.8-0.6-1.1
		c-0.4-0.3-0.9-0.4-1.6-0.4h-2.9C12.9,18.7,12.9,21.7,12.9,21.7z M24.1,24.7V10.2c0-0.6,0.1-0.7,0.3-0.7H35c0.2,0,0.3,0.1,0.3,0.3
		v2.7c0,0.2-0.1,0.3-0.3,0.3h-7.1v2.5h4.5c0.2,0,0.3,0.1,0.3,0.3v2.7c0,0.2-0.1,0.3-0.3,0.3h-4.5v2.6h7.1c0.2,0,0.3,0.1,0.3,0.3v2.7
		c0,0.2-0.1,0.3-0.3,0.3H24.4C24.2,24.6,24.1,24.4,24.1,24.7z M44.1,24.8c-1.2,0-2.3-0.2-3.4-0.7c-1.1-0.4-2.1-1-2.9-1.7
		c-0.1-0.1-0.1-0.2-0.1-0.4l0.8-2.9c0-0.1,0.1-0.2,0.2-0.2c0.1,0,0.2,0,0.3,0.1c1.3,1.2,2.7,2.3,4.5,2.4c0.5,0,1,0,1.5-0.1
		c1.4-0.5,0.8-1.9-0.2-2.3c-0.4-0.1-0.9-0.3-1.5-0.5c-1-0.3-1.8-0.6-2.4-0.8c-0.7-0.3-1.2-0.7-1.7-1.4c-0.5-0.6-0.7-1.4-0.7-2.4
		c0-0.9,0.2-1.8,0.7-2.5c0.5-0.7,1.2-1.3,2-1.6c0.8-0.4,1.8-0.6,2.9-0.6c1,0,2,0.1,2.9,0.5c0.9,0.3,1.8,0.7,2.5,1.2
		c0.1,0.1,0.2,0.2,0.1,0.4L49,14c0,0.1-0.1,0.1-0.2,0.2c-0.1,0-0.2,0-0.2,0c-1.1-0.7-2.2-1.5-3.5-1.7c-0.8-0.1-2.1-0.1-2.4,0.9
		c-0.4,1.3,1.5,1.6,2.4,1.9c1,0.3,1.8,0.6,2.4,0.9c0.7,0.3,1.2,0.8,1.7,1.4c0.5,0.6,0.7,1.5,0.7,2.5c0,1-0.3,1.8-0.8,2.6
		c-0.5,0.7-1.2,1.3-2.1,1.6C46.2,24.6,45.2,24.8,44.1,24.8z M56.2,24.7c-0.2,0-0.3-0.1-0.3-0.3V13h-3.3c-0.2,0-0.3-0.1-0.3-0.3V9.9
		c0-0.2,0.1-0.3,0.3-0.3H63c0.2,0,0.3,0.1,0.3,0.3v2.8c0,0.2-0.1,0.3-0.3,0.3h-3.3v11.4c0,0.2-0.1,0.3-0.3,0.3H56.2z M66,24.7
		c-0.2,0-0.3-0.1-0.3-0.3V9.9c0-0.2,0.1-0.3,0.3-0.3h3.1c0.2,0,0.3,0.1,0.3,0.3v14.5c0,0.2-0.1,0.3-0.3,0.3H66z M71.9,24.7V10.2
		c0-0.6,0.1-0.7,0.3-0.7h10.6c0.2,0,0.3,0.1,0.3,0.3v2.7c0,0.2-0.1,0.3-0.3,0.3h-7.1v2.5h4.5c0.2,0,0.3,0.1,0.3,0.3v2.7
		c0,0.2-0.1,0.3-0.3,0.3h-4.5v2.6h7.1c0.2,0,0.3,0.1,0.3,0.3v2.7c0,0.2-0.1,0.3-0.3,0.3H72.2C72,24.6,71.9,24.4,71.9,24.7L71.9,24.7
		z"/>
</g>
<g id="SvgjsG2282" transform="matrix(2.0234434333181057,0,0,2.0234434333181057,256.85933940009136,14.651691569635075)">
	<path class="st2" d="M43,7.1c2.5,0,4.9,1,6.7,2.8c0.3,0.3,0.3,0.7,0,1c-0.3,0.3-0.7,0.3-1,0c-1.5-1.5-3.5-2.3-5.7-2.3
		c-4.4,0-8,3.6-8,8c0,4.4,3.6,8,8,8c2.1,0,4.2-0.8,5.7-2.3c0.2-0.2,0.1-0.4,0-0.5c-0.1-0.1-0.3-0.1-0.5,0c-1.4,1.4-3.2,2.1-5.2,2.1
		c-4,0-7.3-3.3-7.3-7.3c0-1.9,0.7-3.8,2.1-5.2c0.3-0.3,0.7-0.3,1,0c0.3,0.3,0.3,0.7,0,1c-1.1,1.1-1.7,2.6-1.7,4.1
		c0,3.2,2.6,5.9,5.8,5.9c1.6,0,3-0.6,4.2-1.7c0.7-0.7,1.8-0.7,2.5,0c0.8,0.8,0.7,1.8,0,2.5c-1.8,1.8-4.2,2.8-6.7,2.8
		c-5.2,0-9.4-4.2-9.4-9.4C33.6,11.3,37.8,7.1,43,7.1z M66.4,7.4c1,0,1.7,0.8,1.8,1.7V18c0,2.1-0.8,4.1-2.3,5.7
		c-1.5,1.5-3.6,2.3-5.6,2.3c-2.1,0-4.1-0.8-5.6-2.3c-1.5-1.5-2.3-3.5-2.3-5.7c0-0.4,0.3-0.7,0.7-0.7c0.4,0,0.7,0.3,0.7,0.7
		c0,1.7,0.7,3.4,1.9,4.6c2.5,2.6,6.7,2.6,9.2,0c1.2-1.2,1.9-2.9,1.9-4.6V9.2c0-0.2-0.1-0.3-0.3-0.3c-0.2,0-0.3,0.1-0.3,0.3V18
		c0,1.6-0.6,3-1.7,4.2c-1.1,1.1-2.6,1.7-4.2,1.7c-1.6,0-3-0.6-4.2-1.7c-1.1-1.1-1.7-2.6-1.7-4.2V8.1c0-0.4,0.3-0.7,0.7-0.7
		c0.4,0,0.7,0.3,0.7,0.7V18c0,1.2,0.5,2.3,1.3,3.1c0.8,0.8,2,1.3,3.1,1.3c1.2,0,2.3-0.5,3.1-1.3c0.8-0.8,1.3-2,1.3-3.1V9.1
		C64.7,8.2,65.5,7.4,66.4,7.4z M70.8,7.4h8.8c3,0,5.4,2.5,5.4,5.5s-2.5,5.5-5.5,5.5h-4.1c-1,0-1.9,0.8-1.9,1.9v4.7
		c0,0.4-0.3,0.7-0.7,0.7s-0.7-0.3-0.7-0.7v-4.7c0-1.9,1.5-3.4,3.4-3.4h4.1c2.2,0,4-1.8,4-4s-1.8-4-4-4h-8v4c0,0.4-0.3,0.7-0.7,0.7
		c-0.4,0-0.7-0.3-0.7-0.7V8.1C70.1,7.7,70.5,7.4,70.8,7.4z M79.6,9.5c1.9,0,3.4,1.5,3.4,3.4s-1.5,3.4-3.4,3.4h-4c-2.2,0-4,1.8-4,4
		v4.7c0,0.4-0.3,0.7-0.7,0.7c-0.4,0-0.7-0.3-0.7-0.7v-4.7c0-3,2.4-5.5,5.5-5.5h4.1c1,0,1.9-0.8,1.9-1.9c0-1.1-0.8-1.9-1.9-1.9
		c-0.4,0-0.7-0.3-0.7-0.7C78.9,9.8,79.2,9.5,79.6,9.5z"/>
</g>
</svg>
